<svg xmlns="http://www.w3.org/2000/svg" xmlns:xlink="http://www.w3.org/1999/xlink" width="500" zoomAndPan="magnify" viewBox="0 0 375 374.999991" height="500" preserveAspectRatio="xMidYMid meet" version="1.0"><defs><g/></defs><rect x="-37.5" width="450" fill="#ffffff" y="-37.499999" height="449.999989" fill-opacity="1"/><rect x="-37.5" width="450" fill="#43b3ff" y="-37.499999" height="449.999989" fill-opacity="1"/><g fill="#000000" fill-opacity="1"><g transform="translate(54.867229, 278.102272)"><g><path d="M 33.046875 2.125 C 25.941406 2.125 18.65625 1.328125 11.1875 -0.265625 C 3.726562 -1.867188 0 -5.15625 0 -10.125 C 0 -14.21875 0.929688 -19.285156 2.796875 -25.328125 C 4.660156 -31.367188 7.367188 -34.566406 10.921875 -34.921875 C 11.640625 -34.921875 13.375 -34.5625 16.125 -33.84375 C 18.882812 -33.132812 22.128906 -32.78125 25.859375 -32.78125 C 33.859375 -32.78125 39.585938 -34.957031 43.046875 -39.3125 C 46.515625 -43.664062 48.25 -50.734375 48.25 -60.515625 L 48.25 -178.59375 C 48.25 -184.457031 53.578125 -187.390625 64.234375 -187.390625 L 73.578125 -187.390625 C 84.234375 -187.390625 89.5625 -184.457031 89.5625 -178.59375 L 89.5625 -53.84375 C 89.5625 -36.25 84.941406 -22.519531 75.703125 -12.65625 C 66.460938 -2.800781 52.242188 2.125 33.046875 2.125 Z M 33.046875 2.125 "/></g></g></g><g fill="#000000" fill-opacity="1"><g transform="translate(162.066923, 278.102272)"><g><path d="M 30.921875 0 C 27.191406 0 24.484375 -0.84375 22.796875 -2.53125 C 21.109375 -4.21875 20.265625 -6.925781 20.265625 -10.65625 L 20.265625 -175.9375 C 20.265625 -179.664062 21.109375 -182.375 22.796875 -184.0625 C 24.484375 -185.75 27.191406 -186.59375 30.921875 -186.59375 L 83.703125 -186.59375 C 105.378906 -186.59375 121.28125 -182.414062 131.40625 -174.0625 C 141.539062 -165.707031 146.609375 -154.15625 146.609375 -139.40625 C 146.609375 -130.519531 143.894531 -122.390625 138.46875 -115.015625 C 133.050781 -107.640625 126.171875 -102.265625 117.828125 -98.890625 L 118.09375 -97.828125 C 128.570312 -95.691406 137.1875 -90.445312 143.9375 -82.09375 C 150.695312 -73.75 154.078125 -64.421875 154.078125 -54.109375 C 154.078125 -36.691406 148.519531 -23.316406 137.40625 -13.984375 C 126.300781 -4.660156 109.644531 0 87.4375 0 Z M 79.703125 -112.21875 C 87.523438 -112.21875 93.613281 -114.082031 97.96875 -117.8125 C 102.320312 -121.550781 104.5 -126.351562 104.5 -132.21875 C 104.5 -145.363281 96.410156 -151.9375 80.234375 -151.9375 L 61.3125 -151.9375 L 61.3125 -112.21875 Z M 87.4375 -34.921875 C 95.25 -34.921875 101.285156 -36.785156 105.546875 -40.515625 C 109.816406 -44.242188 111.953125 -49.578125 111.953125 -56.515625 C 111.953125 -63.441406 109.460938 -68.632812 104.484375 -72.09375 C 99.515625 -75.5625 92.410156 -77.296875 83.171875 -77.296875 L 61.3125 -77.296875 L 61.3125 -34.921875 Z M 87.4375 -34.921875 "/></g></g></g></svg>