<svg xmlns="http://www.w3.org/2000/svg" xmlns:xlink="http://www.w3.org/1999/xlink" width="500" zoomAndPan="magnify" viewBox="0 0 375 374.999991" height="500" preserveAspectRatio="xMidYMid meet" version="1.0"><defs><g/><clipPath id="0a360b51e4"><path d="M 30.46875 157.832031 L 63.117188 157.832031 L 63.117188 178.519531 L 30.46875 178.519531 Z M 30.46875 157.832031 " clip-rule="nonzero"/></clipPath><clipPath id="a81d65e253"><path d="M 28.800781 161.289062 L 72.683594 161.289062 L 72.683594 178.574219 L 28.800781 178.574219 Z M 28.800781 161.289062 " clip-rule="nonzero"/></clipPath><clipPath id="dae4995995"><path d="M 37.050781 161.289062 L 64.382812 161.289062 C 68.941406 161.289062 72.632812 164.984375 72.632812 169.539062 L 72.632812 170.324219 C 72.632812 174.878906 68.941406 178.574219 64.382812 178.574219 L 37.050781 178.574219 C 32.492188 178.574219 28.800781 174.878906 28.800781 170.324219 L 28.800781 169.539062 C 28.800781 164.984375 32.492188 161.289062 37.050781 161.289062 Z M 37.050781 161.289062 " clip-rule="nonzero"/></clipPath></defs><rect x="-37.5" width="450" fill="#ffffff" y="-37.499999" height="449.999989" fill-opacity="1"/><rect x="-37.5" width="450" fill="#43b3ff" y="-37.499999" height="449.999989" fill-opacity="1"/><g fill="#000000" fill-opacity="1"><g transform="translate(50.447667, 172.140707)"><g><path d="M 0.296875 4.375 C 5.335938 4.882812 9.015625 5.140625 11.328125 5.140625 C 15.859375 5.140625 18.878906 4.234375 20.390625 2.421875 C 21.898438 0.609375 22.65625 -2.863281 22.65625 -8 L 22.65625 -107.515625 L 51.046875 -107.515625 L 51.046875 -8.453125 C 51.046875 4.234375 48.476562 13.546875 43.34375 19.484375 C 38.207031 25.421875 29.394531 28.390625 16.90625 28.390625 C 11.976562 28.390625 6.441406 27.9375 0.296875 27.03125 Z M 0.296875 4.375 "/></g></g></g><g fill="#000000" fill-opacity="1"><g transform="translate(115.688273, 172.140707)"><g><path d="M 85.328125 -76.71875 L 85.328125 0 L 58.59375 0 L 58.59375 -10.265625 C 53.65625 -2.617188 46.359375 1.203125 36.703125 1.203125 C 26.929688 1.203125 19.65625 -1.507812 14.875 -6.9375 C 10.09375 -12.375 7.703125 -20.679688 7.703125 -31.859375 L 7.703125 -76.71875 L 35.03125 -76.71875 L 35.03125 -31.109375 C 35.03125 -23.554688 38.304688 -19.78125 44.859375 -19.78125 C 48.679688 -19.78125 51.773438 -21.140625 54.140625 -23.859375 C 56.503906 -26.578125 57.6875 -30.203125 57.6875 -34.734375 L 57.6875 -76.71875 Z M 85.328125 -76.71875 "/></g></g></g><g fill="#000000" fill-opacity="1"><g transform="translate(213.549076, 172.140707)"><g><path d="M 105.859375 -78.828125 C 114.722656 -78.828125 121.289062 -76.109375 125.5625 -70.671875 C 129.84375 -65.234375 131.984375 -56.925781 131.984375 -45.75 L 131.984375 0 L 104.65625 0 L 104.65625 -45 C 104.65625 -49.53125 103.972656 -52.800781 102.609375 -54.8125 C 101.253906 -56.832031 98.96875 -57.84375 95.75 -57.84375 C 91.914062 -57.84375 88.941406 -56.429688 86.828125 -53.609375 C 84.710938 -50.785156 83.65625 -46.8125 83.65625 -41.6875 L 83.65625 0 L 56.328125 0 L 56.328125 -45 C 56.328125 -49.53125 55.617188 -52.800781 54.203125 -54.8125 C 52.796875 -56.832031 50.535156 -57.84375 47.421875 -57.84375 C 43.597656 -57.84375 40.648438 -56.429688 38.578125 -53.609375 C 36.515625 -50.785156 35.484375 -46.8125 35.484375 -41.6875 L 35.484375 0 L 8.15625 0 L 8.15625 -54.671875 C 8.15625 -62.921875 7.753906 -70.269531 6.953125 -76.71875 L 32.625 -76.71875 L 33.984375 -66 C 36.296875 -70.125 39.539062 -73.289062 43.71875 -75.5 C 47.894531 -77.71875 52.703125 -78.828125 58.140625 -78.828125 C 69.117188 -78.828125 76.566406 -74.195312 80.484375 -64.9375 C 83.203125 -69.164062 86.800781 -72.535156 91.28125 -75.046875 C 95.769531 -77.566406 100.628906 -78.828125 105.859375 -78.828125 Z M 105.859375 -78.828125 "/></g></g></g><g fill="#000000" fill-opacity="1"><g transform="translate(25.407694, 292.495937)"><g><path d="M 61.21875 -82.15625 C 68.144531 -82.15625 74.285156 -80.445312 79.640625 -77.03125 C 84.992188 -73.625 89.164062 -68.773438 92.15625 -62.484375 C 95.144531 -56.191406 96.640625 -48.953125 96.640625 -40.765625 C 96.640625 -32.472656 95.117188 -25.148438 92.078125 -18.796875 C 89.035156 -12.453125 84.835938 -7.519531 79.484375 -4 C 74.128906 -0.488281 68.039062 1.265625 61.21875 1.265625 C 55.875 1.265625 51 0.191406 46.59375 -1.953125 C 42.1875 -4.109375 38.878906 -7.078125 36.671875 -10.859375 L 36.671875 0 L 8.5 0 L 8.5 -115.84375 L 36.984375 -115.84375 L 36.984375 -70.359375 C 39.296875 -73.921875 42.601562 -76.773438 46.90625 -78.921875 C 51.207031 -81.078125 55.976562 -82.15625 61.21875 -82.15625 Z M 52.5625 -19.984375 C 57.601562 -19.984375 61.460938 -21.765625 64.140625 -25.328125 C 66.816406 -28.898438 68.15625 -34.046875 68.15625 -40.765625 C 68.15625 -47.160156 66.84375 -52.0625 64.21875 -55.46875 C 61.59375 -58.882812 57.707031 -60.59375 52.5625 -60.59375 C 47.425781 -60.59375 43.492188 -58.859375 40.765625 -55.390625 C 38.035156 -51.929688 36.671875 -46.953125 36.671875 -40.453125 C 36.671875 -33.734375 38.035156 -28.640625 40.765625 -25.171875 C 43.492188 -21.710938 47.425781 -19.984375 52.5625 -19.984375 Z M 52.5625 -19.984375 "/></g></g></g><g fill="#000000" fill-opacity="1"><g transform="translate(126.913999, 292.495937)"><g><path d="M 8.5 0 L 8.5 -115.84375 L 36.984375 -115.84375 L 36.984375 0 Z M 8.5 0 "/></g></g></g><g fill="#000000" fill-opacity="1"><g transform="translate(172.395106, 292.495937)"><g><path d="M 82.3125 -37.140625 L 32.109375 -37.140625 C 32.628906 -30.953125 34.410156 -26.492188 37.453125 -23.765625 C 40.492188 -21.035156 44.957031 -19.671875 50.84375 -19.671875 C 54.820312 -19.671875 58.804688 -20.328125 62.796875 -21.640625 C 66.785156 -22.953125 70.40625 -24.765625 73.65625 -27.078125 L 80.90625 -8.1875 C 76.914062 -5.25 72.085938 -2.9375 66.421875 -1.25 C 60.753906 0.425781 55.085938 1.265625 49.421875 1.265625 C 40.296875 1.265625 32.375 -0.410156 25.65625 -3.765625 C 18.9375 -7.128906 13.789062 -11.929688 10.21875 -18.171875 C 6.65625 -24.421875 4.875 -31.796875 4.875 -40.296875 C 4.875 -48.367188 6.578125 -55.578125 9.984375 -61.921875 C 13.398438 -68.273438 18.125 -73.234375 24.15625 -76.796875 C 30.1875 -80.367188 37.085938 -82.15625 44.859375 -82.15625 C 52.410156 -82.15625 59.019531 -80.472656 64.6875 -77.109375 C 70.351562 -73.753906 74.707031 -68.957031 77.75 -62.71875 C 80.789062 -56.476562 82.3125 -49.210938 82.3125 -40.921875 Z M 45.640625 -62.640625 C 38.609375 -62.640625 34.203125 -58.546875 32.421875 -50.359375 L 57.921875 -50.359375 C 56.867188 -58.546875 52.773438 -62.640625 45.640625 -62.640625 Z M 45.640625 -62.640625 "/></g></g></g><g fill="#000000" fill-opacity="1"><g transform="translate(259.422961, 292.495937)"><g><path d="M 6.765625 -29.28125 L 36.515625 -29.28125 L 36.515625 0 L 6.765625 0 Z M 6.765625 -29.28125 "/></g></g></g><g clip-path="url(#0a360b51e4)"><path fill="#43b3ff" d="M 30.46875 157.832031 L 63.117188 157.832031 L 63.117188 178.519531 L 30.46875 178.519531 Z M 30.46875 157.832031 " fill-opacity="1" fill-rule="nonzero"/></g><g clip-path="url(#a81d65e253)"><g clip-path="url(#dae4995995)"><path fill="#43b3ff" d="M 28.800781 161.289062 L 72.617188 161.289062 L 72.617188 178.574219 L 28.800781 178.574219 Z M 28.800781 161.289062 " fill-opacity="1" fill-rule="nonzero"/></g></g></svg>